<svg width="27" height="27" viewBox="0 0 27 27" fill="none" xmlns="http://www.w3.org/2000/svg">
<path d="M5.90625 13.6975C5.1975 13.6975 4.59844 13.4528 4.10906 12.9634C3.61969 12.474 3.375 11.875 3.375 11.1662C3.375 10.4575 3.61969 9.8584 4.10906 9.36902C4.59844 8.87965 5.1975 8.63496 5.90625 8.63496C6.615 8.63496 7.21406 8.87965 7.70344 9.36902C8.19281 9.8584 8.4375 10.4575 8.4375 11.1662C8.4375 11.875 8.19281 12.474 7.70344 12.9634C7.21406 13.4528 6.615 13.6975 5.90625 13.6975ZM10.4625 9.64746C9.75375 9.64746 9.15469 9.40277 8.66531 8.9134C8.17594 8.42402 7.93125 7.82496 7.93125 7.11621C7.93125 6.40746 8.17594 5.8084 8.66531 5.31902C9.15469 4.82965 9.75375 4.58496 10.4625 4.58496C11.1712 4.58496 11.7703 4.82965 12.2597 5.31902C12.7491 5.8084 12.9937 6.40746 12.9937 7.11621C12.9937 7.82496 12.7491 8.42402 12.2597 8.9134C11.7703 9.40277 11.1712 9.64746 10.4625 9.64746ZM16.5375 9.64746C15.8287 9.64746 15.2297 9.40277 14.7403 8.9134C14.2509 8.42402 14.0063 7.82496 14.0063 7.11621C14.0063 6.40746 14.2509 5.8084 14.7403 5.31902C15.2297 4.82965 15.8287 4.58496 16.5375 4.58496C17.2463 4.58496 17.8453 4.82965 18.3347 5.31902C18.8241 5.8084 19.0688 6.40746 19.0688 7.11621C19.0688 7.82496 18.8241 8.42402 18.3347 8.9134C17.8453 9.40277 17.2463 9.64746 16.5375 9.64746ZM21.0938 13.6975C20.385 13.6975 19.7859 13.4528 19.2966 12.9634C18.8072 12.474 18.5625 11.875 18.5625 11.1662C18.5625 10.4575 18.8072 9.8584 19.2966 9.36902C19.7859 8.87965 20.385 8.63496 21.0938 8.63496C21.8025 8.63496 22.4016 8.87965 22.8909 9.36902C23.3803 9.8584 23.625 10.4575 23.625 11.1662C23.625 11.875 23.3803 12.474 22.8909 12.9634C22.4016 13.4528 21.8025 13.6975 21.0938 13.6975ZM8.08313 23.8225C7.32375 23.8225 6.68672 23.5314 6.17203 22.9492C5.65734 22.367 5.4 21.6793 5.4 20.8862C5.4 20.0087 5.69953 19.2409 6.29859 18.5828C6.89766 17.9246 7.4925 17.275 8.08313 16.6337C8.5725 16.1106 8.99438 15.5411 9.34875 14.9251C9.70312 14.3092 10.125 13.7312 10.6144 13.1912C10.9856 12.7525 11.4159 12.3896 11.9053 12.1028C12.3947 11.8159 12.9263 11.6725 13.5 11.6725C14.0737 11.6725 14.6053 11.8075 15.0947 12.0775C15.5841 12.3475 16.0144 12.7018 16.3856 13.1406C16.8581 13.6806 17.2758 14.2628 17.6386 14.8871C18.0014 15.5115 18.4275 16.0937 18.9169 16.6337C19.5075 17.275 20.1023 17.9246 20.7014 18.5828C21.3005 19.2409 21.6 20.0087 21.6 20.8862C21.6 21.6793 21.3427 22.367 20.828 22.9492C20.3133 23.5314 19.6763 23.8225 18.9169 23.8225C18.0056 23.8225 17.1028 23.7465 16.2084 23.5947C15.3141 23.4428 14.4113 23.3668 13.5 23.3668C12.5887 23.3668 11.6859 23.4428 10.7916 23.5947C9.89719 23.7465 8.99438 23.8225 8.08313 23.8225Z" fill="#D0D6E1"/>
</svg>
