<svg width="24" height="24" viewBox="0 0 24 24" fill="none" xmlns="http://www.w3.org/2000/svg">
<path d="M12.5431 18.9348L12 19.7495L11.4508 18.9259C10.9627 18.1938 10.718 17.8266 10.3943 17.5606C10.1065 17.3241 9.774 17.1468 9.41759 17.0386C9.01501 16.9163 8.57161 16.9163 7.68458 16.9163H5.00919C4.48129 16.9163 4.2174 16.9163 4.01557 16.8135C3.83786 16.723 3.69349 16.5781 3.60294 16.4004C3.5 16.1984 3.5 15.9343 3.5 15.4053V7.09421C3.5 6.56527 3.5 6.30061 3.60294 6.09858C3.69349 5.92087 3.83786 5.77649 4.01557 5.68595C4.2176 5.58301 4.4818 5.58301 5.01074 5.58301H7.4663C9.05311 5.58301 9.84671 5.58301 10.4528 5.89182C10.9859 6.16346 11.4194 6.59706 11.691 7.13018C11.9998 7.73626 12 8.52934 12 10.1162C12 8.52934 12 7.73626 12.3088 7.13018C12.5805 6.59706 13.0136 6.16346 13.5467 5.89182C14.1528 5.58301 14.9463 5.58301 16.5331 5.58301H18.9887C19.5176 5.58301 19.7823 5.58301 19.9843 5.68595C20.162 5.77649 20.3062 5.92087 20.3967 6.09858C20.4996 6.30061 20.5 6.56527 20.5 7.09421V15.4053C20.5 15.9343 20.4996 16.1984 20.3967 16.4004C20.3062 16.5781 20.1623 16.723 19.9846 16.8135C19.7828 16.9163 19.5187 16.9163 18.9908 16.9163H16.3155C15.4284 16.9163 14.9841 16.9163 14.5815 17.0386C14.2251 17.1468 13.8942 17.3241 13.6065 17.5606C13.2814 17.8277 13.0351 18.1968 12.5431 18.9348Z" fill="#EFF2F7" fill-opacity="0.9"/>
</svg>
