<svg width="24" height="24" viewBox="0 0 24 24" fill="none" xmlns="http://www.w3.org/2000/svg">
<path d="M12 10.2665V19.3332M12 10.2665C12 8.77302 12 8.02659 12.2906 7.45616C12.5463 6.9544 12.954 6.54631 13.4557 6.29065C14.0262 6 14.773 6 16.2665 6H18.5776C19.0754 6 19.3245 6 19.5147 6.09688C19.6819 6.1821 19.8176 6.31799 19.9028 6.48524C19.9997 6.67539 20 6.92448 20 7.42231V15.2445C20 15.7424 19.9997 15.9909 19.9028 16.1811C19.8176 16.3483 19.6822 16.4847 19.515 16.5699C19.325 16.6667 19.0764 16.6667 18.5796 16.6667H16.0616C15.2268 16.6667 14.8086 16.6667 14.4297 16.7817C14.0942 16.8836 13.7828 17.0504 13.512 17.273C13.2061 17.5244 12.9742 17.8718 12.5111 18.5664L12 19.3332M12 10.2665C12 8.77302 11.9999 8.02659 11.7092 7.45616C11.4535 6.9544 11.0456 6.54631 10.5438 6.29065C9.97337 6 9.22646 6 7.73299 6H5.42188C4.92405 6 4.67539 6 4.48524 6.09688C4.31799 6.1821 4.1821 6.31799 4.09688 6.48524C4 6.67539 4 6.92448 4 7.42231V15.2445C4 15.7424 4 15.9909 4.09688 16.1811C4.1821 16.3483 4.31799 16.4847 4.48524 16.5699C4.6752 16.6667 4.92356 16.6667 5.42041 16.6667H7.93842C8.77328 16.6667 9.1906 16.6667 9.5695 16.7817C9.90494 16.8836 10.2179 17.0504 10.4887 17.273C10.7934 17.5234 11.0238 17.869 11.4831 18.558L12 19.3332" stroke="#D0D6E1" stroke-width="2" stroke-linecap="round" stroke-linejoin="round"/>
</svg>
