<svg width="24" height="24" viewBox="0 0 24 24" fill="none" xmlns="http://www.w3.org/2000/svg">
<path fill-rule="evenodd" clip-rule="evenodd" d="M4.7 17.4502V7.72017C4.7 6.76808 4.7 6.29168 4.88529 5.92803C5.04827 5.60815 5.30815 5.34827 5.62803 5.18529C5.99168 5 6.46808 5 7.42017 5H10.4802C11.4323 5 11.9076 5 12.2713 5.18529C12.5912 5.34827 12.8519 5.60815 13.0149 5.92803C13.2 6.29132 13.2 6.76714 13.2 7.71737V12.65C13.2 11.8579 13.2 11.462 13.3294 11.1496C13.5019 10.7331 13.8327 10.4019 14.2492 10.2294C14.5616 10.1 14.9577 10.1 15.7498 10.1C16.5419 10.1 16.9384 10.1 17.2508 10.2294C17.6673 10.4019 17.998 10.7331 18.1705 11.1496C18.2999 11.462 18.3 11.8579 18.3 12.65V17.4502H19.5C20.0523 17.4502 20.5 17.8979 20.5 18.4502C20.5 19.0025 20.0523 19.4502 19.5 19.4502H4.5C3.94772 19.4502 3.5 19.0025 3.5 18.4502C3.5 17.8979 3.94772 17.4502 4.5 17.4502H4.7ZM6.25 8.39844C6.25 7.84615 6.69772 7.39844 7.25 7.39844L10.6484 7.39844C11.2007 7.39844 11.6484 7.84615 11.6484 8.39844C11.6484 8.95072 11.2007 9.39844 10.6484 9.39844L7.25 9.39844C6.69772 9.39844 6.25 8.95072 6.25 8.39844ZM7.25 9.94434C6.69772 9.94434 6.25 10.3921 6.25 10.9443C6.25 11.4966 6.69772 11.9443 7.25 11.9443L10.6484 11.9443C11.2007 11.9443 11.6484 11.4966 11.6484 10.9443C11.6484 10.3921 11.2007 9.94434 10.6484 9.94434L7.25 9.94434Z" fill="#EFF2F7" fill-opacity="0.9"/>
</svg>
