<svg width="24" height="24" viewBox="0 0 24 24" fill="none" xmlns="http://www.w3.org/2000/svg">
<path d="M3 19.45H4.7M4.7 19.45H13.2M4.7 19.45V7.72017C4.7 6.76808 4.7 6.29168 4.88529 5.92803C5.04827 5.60815 5.30815 5.34827 5.62803 5.18529C5.99168 5 6.46808 5 7.42017 5H10.4802C11.4323 5 11.9076 5 12.2713 5.18529C12.5912 5.34827 12.8519 5.60815 13.0149 5.92803C13.2 6.29132 13.2 6.76714 13.2 7.71737V12.65M13.2 19.45H18.3M13.2 19.45V12.65M18.3 19.45H20M18.3 19.45V12.65C18.3 11.8579 18.2999 11.462 18.1705 11.1496C17.998 10.7331 17.6673 10.4019 17.2508 10.2294C16.9384 10.1 16.5419 10.1 15.7498 10.1C14.9577 10.1 14.5616 10.1 14.2492 10.2294C13.8327 10.4019 13.5019 10.7331 13.3294 11.1496C13.2 11.462 13.2 11.8579 13.2 12.65M7.25 10.95H10.65M7.25 8.4H10.65" stroke="#D0D6E1" stroke-width="2" stroke-linecap="round" stroke-linejoin="round"/>
</svg>
