<svg width="24" height="24" viewBox="0 0 24 24" fill="none" xmlns="http://www.w3.org/2000/svg">
<path d="M18.947 12.8597L19 12.8673C19.0009 12.8674 19.0013 12.8676 19.0013 12.8676C19.0012 12.8676 19.0008 12.8675 19 12.8671C18.9978 12.8661 18.9928 12.8631 18.9861 12.8552C18.9798 12.8476 18.9713 12.8345 18.9652 12.8153C18.9588 12.7951 18.9571 12.7743 18.9589 12.7574C18.9552 12.7916 18.9512 12.8257 18.947 12.8597ZM18.947 12.8597C18.8134 13.9396 18.4292 14.9777 17.8203 15.889C17.0511 17.0401 15.9579 17.9373 14.6788 18.4672C13.3997 18.997 11.9922 19.1356 10.6344 18.8655C9.2765 18.5954 8.02922 17.9287 7.05025 16.9497C6.07128 15.9708 5.4046 14.7235 5.1345 13.3656C4.86441 12.0078 5.00303 10.6003 5.53284 9.32122C6.06266 8.04213 6.95986 6.94888 8.11101 6.17971C9.02232 5.5708 10.0604 5.18663 11.1403 5.05299L11.957 10.7702L12.947 10.6288M18.947 12.8597L13.2298 12.043C12.5698 11.9487 12.0513 11.4302 11.957 10.7702L12.947 10.6288M12.947 10.6288C12.9784 10.8488 13.1512 11.0216 13.3712 11.053L19.1414 11.8773C19.6341 11.9477 20.0069 12.3709 19.953 12.8656C19.8141 14.1417 19.3696 15.3702 18.6518 16.4446C17.7727 17.7602 16.5233 18.7855 15.0615 19.391C13.5997 19.9965 11.9911 20.155 10.4393 19.8463C8.88743 19.5376 7.46197 18.7757 6.34315 17.6569C5.22433 16.538 4.4624 15.1126 4.15372 13.5607C3.84504 12.0089 4.00346 10.4003 4.60896 8.93853C5.21446 7.47672 6.23985 6.22729 7.55544 5.34824C8.62979 4.63038 9.85828 4.18585 11.1344 4.04696C11.6291 3.99312 12.0523 4.36593 12.1227 4.85858L12.947 10.6288Z" stroke="#D0D6E1" stroke-width="2"/>
</svg>
