<svg width="24" height="24" viewBox="0 0 24 24" fill="none" xmlns="http://www.w3.org/2000/svg">
<path d="M19.1414 11.8773C19.6341 11.9477 20.0069 12.3709 19.953 12.8656C19.8141 14.1417 19.3696 15.3702 18.6518 16.4446C17.7727 17.7602 16.5233 18.7855 15.0615 19.391C13.5997 19.9965 11.9911 20.155 10.4393 19.8463C8.88743 19.5376 7.46197 18.7757 6.34315 17.6569C5.22433 16.538 4.4624 15.1126 4.15372 13.5607C3.84504 12.0089 4.00346 10.4003 4.60896 8.93853C5.21446 7.47672 6.23985 6.22729 7.55544 5.34824C8.62979 4.63038 9.85828 4.18585 11.1344 4.04696C11.6291 3.99312 12.0523 4.36593 12.1227 4.85858L12.947 10.6288C12.9784 10.8488 13.1512 11.0216 13.3712 11.053L19.1414 11.8773Z" fill="#EFF2F7" fill-opacity="0.9"/>
</svg>
