<svg width="27" height="27" viewBox="0 0 27 27" fill="none" xmlns="http://www.w3.org/2000/svg">
<path fill-rule="evenodd" clip-rule="evenodd" d="M13.9999 24.125C8.40799 24.125 3.87488 19.5919 3.87488 14C3.87488 8.40812 8.40799 3.875 13.9999 3.875C19.5918 3.875 24.1249 8.40812 24.1249 14C24.1249 19.5919 19.5918 24.125 13.9999 24.125ZM15.1249 8.375C15.1249 7.75368 14.6212 7.25 13.9999 7.25C13.3786 7.25 12.8749 7.75368 12.8749 8.375V14C12.8749 14.6213 13.3786 15.125 13.9999 15.125H19.6249C20.2462 15.125 20.7499 14.6213 20.7499 14C20.7499 13.3787 20.2462 12.875 19.6249 12.875H15.1249V8.375Z" fill="url(#paint0_radial_810_4766)"/>
<defs>
<radialGradient id="paint0_radial_810_4766" cx="0" cy="0" r="1" gradientUnits="userSpaceOnUse" gradientTransform="translate(13.9999 14) rotate(90) scale(10.125)">
<stop offset="0.42" stop-color="#3E7FFF"/>
<stop offset="1" stop-color="#6F9EFD" stop-opacity="0.7"/>
</radialGradient>
</defs>
</svg>
