<svg width="24" height="24" viewBox="0 0 24 24" fill="none" xmlns="http://www.w3.org/2000/svg">
<g clip-path="url(#clip0_264_4829)">
<path d="M19.7359 16.3858L19.7359 7.74228L20.9039 7.72409C21.4476 7.72397 21.9106 7.91352 22.2927 8.29274C22.6748 8.67185 22.8658 9.13332 22.8658 9.67717L22.8614 14.4289C22.8614 14.9727 22.6742 15.4333 22.2997 15.8107C21.9251 16.1882 21.466 16.3769 20.9223 16.3768L19.7359 16.3858ZM2.8207 16.377C2.44833 16.377 2.0734 16.2372 1.69589 15.9577C1.3185 15.6783 1.12981 15.2667 1.12981 14.7228L1.12981 9.68158C1.12981 9.13773 1.32156 8.67552 1.70507 8.29495C2.08871 7.91425 2.55245 7.72391 3.0963 7.72391L4.23618 7.74228L4.23618 16.377L2.8207 16.377ZM5.75308 18.4818C5.5582 18.482 5.38923 18.4105 5.24616 18.2674C5.10322 18.1245 5.03174 17.9555 5.03174 17.7605L5.03174 6.3867C5.03174 6.1917 5.10321 6.02419 5.24616 5.88419C5.38923 5.74406 5.5582 5.67406 5.75308 5.67418L8.63897 5.66003C8.83385 5.66016 9.00056 5.72949 9.13909 5.86802C9.27775 6.00668 9.34708 6.17338 9.34708 6.36814L9.34708 8.88234L14.6301 8.85956L14.6303 6.39111C14.6179 6.18398 14.6795 6.01268 14.815 5.87721C14.9503 5.74186 15.1277 5.67418 15.3472 5.67418L18.2418 5.66022C18.4367 5.6601 18.6034 5.72936 18.7421 5.86802C18.8806 6.00656 18.9499 6.17332 18.9499 6.36833L18.9499 17.7421C18.9621 17.9494 18.899 18.1237 18.7605 18.2652C18.6218 18.4068 18.4428 18.4776 18.2234 18.4774L15.3472 18.4818C15.1522 18.4818 14.9833 18.4104 14.8403 18.2674C14.6973 18.1244 14.6258 17.9554 14.6259 17.7605L14.6301 15.223L9.32871 15.2186L9.34708 17.7791C9.34708 17.9738 9.27469 18.1389 9.12991 18.2744C8.98525 18.4098 8.81548 18.4775 8.6206 18.4776L5.75308 18.4818Z" fill="white"/>
</g>
<defs>
<clipPath id="clip0_264_4829">
<rect width="24" height="24" fill="white"/>
</clipPath>
</defs>
</svg>
