<svg width="24" height="24" viewBox="0 0 24 24" fill="none" xmlns="http://www.w3.org/2000/svg">
<path fill-rule="evenodd" clip-rule="evenodd" d="M11.5182 20.3727C11.8319 20.4706 12.1683 20.4706 12.482 20.3727C14.2465 19.8224 15.72 18.7386 16.9028 17.1213C18.1917 15.3589 18.8361 13.4019 18.8361 11.2503V7.43719C18.8361 6.60294 18.3183 5.85631 17.5369 5.56399L12.7009 3.75473C12.249 3.58566 11.7512 3.58566 11.2993 3.75473L6.46326 5.56399C5.6819 5.85631 5.16406 6.60294 5.16406 7.43719V11.2503C5.16406 13.4019 5.80851 15.3589 7.0974 17.1213C8.28016 18.7386 9.75375 19.8224 11.5182 20.3727ZM11.0501 14.917H12.9501C13.1158 14.917 13.2501 14.7827 13.2501 14.617V13.1337C13.2501 12.968 13.3844 12.8337 13.5501 12.8337H15.0334C15.1991 12.8337 15.3334 12.6994 15.3334 12.5337V10.6337C15.3334 10.468 15.1991 10.3337 15.0334 10.3337H13.5501C13.3844 10.3337 13.2501 10.1994 13.2501 10.0337V8.55036C13.2501 8.38467 13.1158 8.25036 12.9501 8.25036H11.0501C10.8844 8.25036 10.7501 8.38467 10.7501 8.55036V10.0337C10.7501 10.1994 10.6158 10.3337 10.4501 10.3337H8.96675C8.80106 10.3337 8.66675 10.468 8.66675 10.6337V12.5337C8.66675 12.6994 8.80106 12.8337 8.96675 12.8337H10.4501C10.6158 12.8337 10.7501 12.968 10.7501 13.1337V14.617C10.7501 14.7827 10.8844 14.917 11.0501 14.917Z" fill="#EFF2F7" fill-opacity="0.9"/>
</svg>
