<svg width="24" height="24" viewBox="0 0 24 24" fill="none" xmlns="http://www.w3.org/2000/svg">
<path d="M10.7501 14.6166C10.7501 14.7822 10.8844 14.9166 11.0501 14.9166H12.9501C13.1158 14.9166 13.2501 14.7822 13.2501 14.6166V13.1332C13.2501 12.9675 13.3844 12.8332 13.5501 12.8332H15.0334C15.1991 12.8332 15.3334 12.6989 15.3334 12.5332V10.6332C15.3334 10.4675 15.1991 10.3332 15.0334 10.3332H13.5501C13.3844 10.3332 13.2501 10.1989 13.2501 10.0332V8.5499C13.2501 8.38421 13.1158 8.2499 12.9501 8.2499H11.0501C10.8844 8.2499 10.7501 8.38421 10.7501 8.5499V10.0332C10.7501 10.1989 10.6158 10.3332 10.4501 10.3332H8.96677C8.80109 10.3332 8.66677 10.4675 8.66677 10.6332V12.5332C8.66677 12.6989 8.80109 12.8332 8.96677 12.8332H10.4501C10.6158 12.8332 10.7501 12.9675 10.7501 13.1332V14.6166ZM12.482 20.3724C12.1683 20.4702 11.8319 20.4702 11.5182 20.3724C9.75375 19.822 8.28016 18.7382 7.0974 17.1209C5.80851 15.3586 5.16406 13.4016 5.16406 11.2499V7.43683C5.16406 6.60258 5.6819 5.85595 6.46326 5.56363L11.2993 3.75437C11.7512 3.5853 12.249 3.5853 12.7009 3.75437L17.5369 5.56363C18.3183 5.85595 18.8361 6.60258 18.8361 7.43683V11.2499C18.8361 13.4016 18.1917 15.3586 16.9028 17.1209C15.72 18.7382 14.2465 19.822 12.482 20.3724ZM11.6839 18.4132C11.8871 18.4931 12.1131 18.4931 12.3163 18.4132C13.5971 17.9099 14.6704 17.0316 15.5361 15.7784C16.4723 14.4233 16.9403 12.9145 16.9403 11.2522V8.05053C16.9403 7.63352 16.6815 7.26028 16.291 7.11404L12.351 5.6386C12.1248 5.55387 11.8755 5.55392 11.6492 5.63876L7.70878 7.11636C7.31847 7.26272 7.0599 7.63585 7.0599 8.0527V11.2499C7.0599 12.9138 7.52795 14.4233 8.46406 15.7784C9.32984 17.0316 10.4031 17.9099 11.6839 18.4132Z" fill="#D0D6E1"/>
</svg>
