<svg width="27" height="27" viewBox="0 0 27 27" fill="none" xmlns="http://www.w3.org/2000/svg">
<path d="M23.3889 20.2692V13.7581C23.3889 13.131 23.3884 12.8172 23.3121 12.5254C23.2445 12.2668 23.1336 12.0221 22.9835 11.801C22.8141 11.5514 22.5786 11.3445 22.1066 10.9316L16.4733 6.00238C15.5971 5.23568 15.159 4.85252 14.6659 4.70671C14.2314 4.57823 13.7683 4.57823 13.3339 4.70671C12.8412 4.85241 12.4037 5.23521 11.5288 6.00075L5.89361 10.9316C5.42166 11.3445 5.18623 11.5514 5.01684 11.801C4.86672 12.0221 4.75494 12.2668 4.68737 12.5254C4.61111 12.8172 4.61111 13.131 4.61111 13.7581V20.2692C4.61111 21.3629 4.61111 21.9095 4.78979 22.3408C5.02802 22.916 5.48466 23.3735 6.05979 23.6117C6.49114 23.7904 7.03798 23.7904 8.13165 23.7904C9.22531 23.7904 9.77275 23.7904 10.2041 23.6117C10.7792 23.3735 11.2358 22.9161 11.474 22.3409C11.6527 21.9096 11.6528 21.3628 11.6528 20.2691V19.0955C11.6528 17.7991 12.7037 16.7483 14 16.7483C15.2963 16.7483 16.3472 17.7991 16.3472 19.0955V20.2691C16.3472 21.3628 16.3472 21.9096 16.5259 22.3409C16.7641 22.9161 17.2208 23.3735 17.7959 23.6117C18.2273 23.7904 18.7741 23.7904 19.8678 23.7904C20.9614 23.7904 21.5089 23.7904 21.9402 23.6117C22.5154 23.3735 22.9719 22.916 23.2101 22.3408C23.3888 21.9095 23.3889 21.3629 23.3889 20.2692Z" fill="#6F9EFD" stroke="#6F9EFD" stroke-width="2.34722" stroke-linecap="round" stroke-linejoin="round"/>
</svg>
