<svg width="24" height="24" viewBox="0 0 24 24" fill="none" xmlns="http://www.w3.org/2000/svg">
<path fill-rule="evenodd" clip-rule="evenodd" d="M9.70729 3.63695C10.9414 2.29549 13.0586 2.2955 14.2927 3.63695L19.6289 9.43713C20.5106 10.3955 21 11.6503 21 12.9526V17.5633C21 19.6662 19.2952 21.371 17.1923 21.371H14.7692C13.6222 21.371 12.6923 20.4411 12.6923 19.2941V16.5248H11.3077V19.2941C11.3077 20.4411 10.3778 21.371 9.23077 21.371H6.80769C4.70476 21.371 3 19.6662 3 17.5633V12.9526C3 11.6503 3.48939 10.3955 4.37113 9.43713L9.70729 3.63695ZM12.7642 5.04315C12.3529 4.59599 11.6471 4.59599 11.2358 5.04315L5.8996 10.8433C5.37056 11.4184 5.07692 12.1712 5.07692 12.9526V17.5633C5.07692 18.5192 5.85181 19.2941 6.80769 19.2941H9.23077V16.5248C9.23077 15.3778 10.1606 14.4479 11.3077 14.4479H12.6923C13.8394 14.4479 14.7692 15.3778 14.7692 16.5248V19.2941H17.1923C18.1482 19.2941 18.9231 18.5192 18.9231 17.5633V12.9526C18.9231 12.1712 18.6294 11.4184 18.1004 10.8433L12.7642 5.04315Z" fill="#D0D6E1"/>
</svg>
