<svg width="24" height="24" viewBox="0 0 24 24" fill="none" xmlns="http://www.w3.org/2000/svg">
<path d="M18 21.0074H15C14.1716 21.0074 13.5 20.3358 13.5 19.5074V15.7574C13.5 15.3431 13.1642 15.0074 12.75 15.0074H11.25C10.8358 15.0074 10.5 15.3431 10.5 15.7574V19.5074C10.5 20.3358 9.82843 21.0074 9 21.0074H6C4.34315 21.0074 3 19.6642 3 18.0074V11.6213C3 10.4278 3.47411 9.28325 4.31802 8.43934L9.87868 2.87868C11.0503 1.70711 12.9497 1.70711 14.1213 2.87868L19.682 8.43934C20.5259 9.28325 21 10.4278 21 11.6213V18.0074C21 19.6642 19.6569 21.0074 18 21.0074Z" fill="#D0D6E1"/>
</svg>
