<svg width="16" height="16" viewBox="0 0 16 16" fill="none" xmlns="http://www.w3.org/2000/svg">
    <path d="M8.00008 9.99935L10.0001 7.99935M10.0001 7.99935L8.00008 5.99935M10.0001 7.99935H2.66675M6.00008 4.83174V4.79948C6.00008 4.05274 6.00008 3.6791 6.14541 3.39388C6.27324 3.143 6.47706 2.93917 6.72795 2.81134C7.01316 2.66602 7.38681 2.66602 8.13355 2.66602H11.2002C11.9469 2.66602 12.3198 2.66602 12.605 2.81134C12.8559 2.93917 13.0604 3.143 13.1882 3.39388C13.3334 3.67882 13.3334 4.05201 13.3334 4.79729V11.2017C13.3334 11.947 13.3334 12.3197 13.1882 12.6046C13.0604 12.8555 12.8559 13.0597 12.605 13.1875C12.3201 13.3327 11.9474 13.3327 11.2021 13.3327H8.13135C7.38608 13.3327 7.01288 13.3327 6.72795 13.1875C6.47706 13.0597 6.27324 12.8553 6.14541 12.6044C6.00008 12.3192 6.00008 11.9461 6.00008 11.1993V11.166" stroke="#FD6F6F" stroke-width="1.33333" stroke-linecap="round" stroke-linejoin="round"/>
</svg>
