<svg width="24" height="24" viewBox="0 0 24 24" fill="none" xmlns="http://www.w3.org/2000/svg">
<path fill-rule="evenodd" clip-rule="evenodd" d="M7.2002 3H7.16168C6.63451 2.99998 6.17965 2.99997 5.80499 3.03057C5.40962 3.06286 5.01625 3.13416 4.63781 3.32698C4.07332 3.6146 3.6146 4.07332 3.32698 4.63781C3.13416 5.01625 3.06286 5.40962 3.03057 5.80499C2.99997 6.17964 2.99998 6.63449 3 7.16164V7.16168V7.2002V16.8002V16.8388V16.8388C2.99998 17.3659 2.99997 17.8206 3.03057 18.1951C3.06288 18.5904 3.13421 18.9835 3.32698 19.3619C3.61431 19.9258 4.07276 20.3853 4.63781 20.6732C5.016 20.8659 5.40906 20.9372 5.80397 20.9695C6.17815 21 6.6323 21 7.15839 21H7.19691H8H16.8031H16.8416C17.3677 21 17.8217 21 18.1957 20.9695C18.5905 20.9372 18.9833 20.8659 19.3614 20.6732C19.9254 20.3859 20.3854 19.9269 20.6732 19.3619C20.8659 18.9838 20.9372 18.591 20.9695 18.1962C21 17.8222 21 17.3682 21 16.8421V16.8036V7.19691V7.15839C21 6.6323 21 6.17815 20.9695 5.80397C20.9372 5.40906 20.8659 5.016 20.6732 4.63781C20.3851 4.07224 19.9248 3.61405 19.3614 3.32698L19.0185 4L19.3614 3.32698C18.9831 3.13424 18.5902 3.06289 18.1949 3.03058C17.8205 2.99997 17.3659 2.99998 16.8388 3H16.8002H8H7.2002ZM5.54579 5.109C5.59518 5.08383 5.69595 5.04614 5.9678 5.02393C6.21702 5.00358 6.53499 5.00052 7 5.00007V12V18.9999C6.53429 18.9995 6.21614 18.9965 5.96686 18.9761C5.69554 18.9539 5.59501 18.9163 5.54579 18.8912C5.35819 18.7956 5.20516 18.6426 5.109 18.4539C5.08378 18.4044 5.04612 18.3037 5.02393 18.0322C5.00078 17.7489 5 17.3768 5 16.8002V7.2002C5 6.62365 5.00078 6.25126 5.02393 5.9678C5.04614 5.69595 5.08383 5.59517 5.109 5.54579C5.20487 5.35763 5.35763 5.20487 5.54579 5.109ZM18 9C18 9.55229 17.5523 10 17 10L11 10C10.4477 10 10 9.55229 10 9C10 8.44772 10.4477 8 11 8L17 8C17.5523 8 18 8.44772 18 9ZM17 14C17.5523 14 18 13.5523 18 13C18 12.4477 17.5523 12 17 12L11 12C10.4477 12 10 12.4477 10 13C10 13.5523 10.4477 14 11 14L17 14Z" fill="white"/>
</svg>
