<svg width="24" height="24" viewBox="0 0 24 24" fill="none" xmlns="http://www.w3.org/2000/svg">
<path d="M5.25 12.1752C4.62 12.1752 4.0875 11.9577 3.6525 11.5227C3.2175 11.0877 3 10.5552 3 9.9252C3 9.2952 3.2175 8.7627 3.6525 8.3277C4.0875 7.8927 4.62 7.6752 5.25 7.6752C5.88 7.6752 6.4125 7.8927 6.8475 8.3277C7.2825 8.7627 7.5 9.2952 7.5 9.9252C7.5 10.5552 7.2825 11.0877 6.8475 11.5227C6.4125 11.9577 5.88 12.1752 5.25 12.1752ZM9.3 8.5752C8.67 8.5752 8.1375 8.3577 7.7025 7.9227C7.2675 7.4877 7.05 6.9552 7.05 6.3252C7.05 5.6952 7.2675 5.1627 7.7025 4.7277C8.1375 4.2927 8.67 4.0752 9.3 4.0752C9.93 4.0752 10.4625 4.2927 10.8975 4.7277C11.3325 5.1627 11.55 5.6952 11.55 6.3252C11.55 6.9552 11.3325 7.4877 10.8975 7.9227C10.4625 8.3577 9.93 8.5752 9.3 8.5752ZM14.7 8.5752C14.07 8.5752 13.5375 8.3577 13.1025 7.9227C12.6675 7.4877 12.45 6.9552 12.45 6.3252C12.45 5.6952 12.6675 5.1627 13.1025 4.7277C13.5375 4.2927 14.07 4.0752 14.7 4.0752C15.33 4.0752 15.8625 4.2927 16.2975 4.7277C16.7325 5.1627 16.95 5.6952 16.95 6.3252C16.95 6.9552 16.7325 7.4877 16.2975 7.9227C15.8625 8.3577 15.33 8.5752 14.7 8.5752ZM18.75 12.1752C18.12 12.1752 17.5875 11.9577 17.1525 11.5227C16.7175 11.0877 16.5 10.5552 16.5 9.9252C16.5 9.2952 16.7175 8.7627 17.1525 8.3277C17.5875 7.8927 18.12 7.6752 18.75 7.6752C19.38 7.6752 19.9125 7.8927 20.3475 8.3277C20.7825 8.7627 21 9.2952 21 9.9252C21 10.5552 20.7825 11.0877 20.3475 11.5227C19.9125 11.9577 19.38 12.1752 18.75 12.1752ZM7.185 21.1752C6.51 21.1752 5.94375 20.9164 5.48625 20.3989C5.02875 19.8814 4.8 19.2702 4.8 18.5652C4.8 17.7852 5.06625 17.1027 5.59875 16.5177C6.13125 15.9327 6.66 15.3552 7.185 14.7852C7.62 14.3202 7.995 13.8139 8.31 13.2664C8.625 12.7189 9 12.2052 9.435 11.7252C9.765 11.3352 10.1475 11.0127 10.5825 10.7577C11.0175 10.5027 11.49 10.3752 12 10.3752C12.51 10.3752 12.9825 10.4952 13.4175 10.7352C13.8525 10.9752 14.235 11.2902 14.565 11.6802C14.985 12.1602 15.3563 12.6777 15.6788 13.2327C16.0013 13.7877 16.38 14.3052 16.815 14.7852C17.34 15.3552 17.8688 15.9327 18.4013 16.5177C18.9338 17.1027 19.2 17.7852 19.2 18.5652C19.2 19.2702 18.9713 19.8814 18.5138 20.3989C18.0563 20.9164 17.49 21.1752 16.815 21.1752C16.005 21.1752 15.2025 21.1077 14.4075 20.9727C13.6125 20.8377 12.81 20.7702 12 20.7702C11.19 20.7702 10.3875 20.8377 9.5925 20.9727C8.7975 21.1077 7.995 21.1752 7.185 21.1752Z" fill="#6F9EFD"/>
</svg>
