<svg width="24" height="24" viewBox="0 0 24 24" fill="none" xmlns="http://www.w3.org/2000/svg">
<path d="M15.9 11.65C16.1408 11.65 16.3427 11.5685 16.5056 11.4056C16.6685 11.2427 16.75 11.0408 16.75 10.8C16.75 10.5592 16.6685 10.3573 16.5056 10.1944C16.3427 10.0315 16.1408 9.95 15.9 9.95C15.6592 9.95 15.4573 10.0315 15.2944 10.1944C15.1315 10.3573 15.05 10.5592 15.05 10.8C15.05 11.0408 15.1315 11.2427 15.2944 11.4056C15.4573 11.5685 15.6592 11.65 15.9 11.65ZM9.1 9.1C9.1 9.56944 9.48056 9.95 9.95 9.95H12.5C12.9694 9.95 13.35 9.56944 13.35 9.1C13.35 8.63056 12.9694 8.25 12.5 8.25H9.95C9.48056 8.25 9.1 8.63056 9.1 9.1ZM6.75849 20.15C6.38262 20.15 6.05132 19.9031 5.94421 19.5429C5.52447 18.1311 5.11015 16.722 4.70125 15.3156C4.23375 13.7077 4 12.0608 4 10.375C4 9.07167 4.45333 7.96667 5.36 7.06C6.26667 6.15333 7.37167 5.7 8.675 5.7H12.5044C12.7695 5.7 13.0156 5.5728 13.1948 5.37756C13.5489 4.99187 13.9584 4.68143 14.4231 4.44625C15.011 4.14875 15.645 4 16.325 4C16.6792 4 16.9802 4.12396 17.2281 4.37187C17.476 4.61979 17.6 4.92083 17.6 5.275C17.6 5.36 17.5894 5.445 17.5681 5.53C17.5469 5.615 17.5221 5.69292 17.4938 5.76375C17.4371 5.91958 17.384 6.07896 17.3344 6.24187C17.327 6.26604 17.3199 6.29029 17.313 6.31461C17.2382 6.57873 17.3327 6.85645 17.5268 7.05056L18.9023 8.42604C19.0617 8.58545 19.2779 8.675 19.5033 8.675H20.15C20.6194 8.675 21 9.05556 21 9.525V13.9877C21 14.3552 20.7638 14.6811 20.4145 14.7955L19.0212 15.2517C18.7566 15.3383 18.5512 15.5491 18.4714 15.8159L17.3564 19.5436C17.2487 19.9035 16.9177 20.15 16.542 20.15H13.35C12.8806 20.15 12.5 19.7694 12.5 19.3C12.5 18.8306 12.1194 18.45 11.65 18.45C11.1806 18.45 10.8 18.8306 10.8 19.3C10.8 19.7694 10.4194 20.15 9.95 20.15H6.75849ZM7.31422 18.1372C7.36497 18.3219 7.5328 18.45 7.72431 18.45H8.675C8.90972 18.45 9.1 18.2597 9.1 18.025V17.175C9.1 16.9403 9.29028 16.75 9.525 16.75H13.775C14.0097 16.75 14.2 16.9403 14.2 17.175V18.025C14.2 18.2597 14.3903 18.45 14.625 18.45H15.5841C15.7716 18.45 15.937 18.3271 15.991 18.1475L17.091 14.493C17.1703 14.2292 17.3726 14.0203 17.6336 13.9324L19.0106 13.4687C19.1835 13.4105 19.3 13.2484 19.3 13.0659V10.8C19.3 10.5653 19.1097 10.375 18.875 10.375H18.626C18.5133 10.375 18.4052 10.3302 18.3255 10.2505L15.724 7.64896C15.5646 7.48955 15.4722 7.27318 15.4844 7.04808C15.493 6.88911 15.5076 6.73371 15.5281 6.58188C15.5314 6.55729 15.5349 6.53267 15.5386 6.50803C15.5864 6.18382 15.291 5.90445 15.0095 6.07224C14.866 6.15776 14.7308 6.2568 14.6038 6.36937C14.3658 6.58028 14.1774 6.8304 14.0386 7.11974C13.9601 7.28322 13.8021 7.4 13.6207 7.4H8.675C7.85333 7.4 7.15208 7.69042 6.57125 8.27125C5.99042 8.85208 5.7 9.55333 5.7 10.375C5.7 11.7633 5.89125 13.1198 6.27375 14.4444C6.6266 15.6663 6.97342 16.8972 7.31422 18.1372Z" fill="#D0D6E1"/>
</svg>
