<svg width="24" height="24" viewBox="0 0 24 24" fill="none" xmlns="http://www.w3.org/2000/svg">
<g clip-path="url(#clip0_564_12931)">
<path d="M5.6982 17.1174C6.63153 16.4368 7.6242 15.9137 8.6762 15.5482C9.72803 15.1829 10.836 15.0002 12.0002 15.0002C13.1644 15.0002 14.2724 15.1829 15.3242 15.5482C16.3762 15.9137 17.3689 16.4368 18.3022 17.1174C18.9239 16.3508 19.3873 15.5473 19.6924 14.7069C19.9976 13.8666 20.1502 12.9644 20.1502 12.0002C20.1502 9.76686 19.3502 7.8502 17.7502 6.2502C16.1502 4.6502 14.2335 3.8502 12.0002 3.8502C9.76686 3.8502 7.8502 4.6502 6.2502 6.2502C4.6502 7.8502 3.8502 9.76686 3.8502 12.0002C3.8502 12.9644 4.00278 13.8666 4.30795 14.7069C4.61311 15.5473 5.07653 16.3508 5.6982 17.1174ZM12.0022 13.3502C10.9214 13.3502 10.0092 12.979 9.2657 12.2367C8.52203 11.4945 8.1502 10.583 8.1502 9.5022C8.1502 8.42136 8.52136 7.5092 9.2637 6.7657C10.0059 6.02203 10.9174 5.6502 11.9982 5.6502C13.079 5.6502 13.9912 6.02136 14.7347 6.76369C15.4784 7.50586 15.8502 8.41736 15.8502 9.4982C15.8502 10.579 15.479 11.4912 14.7367 12.2347C13.9945 12.9784 13.083 13.3502 12.0022 13.3502ZM12.0002 22.3002C10.5977 22.3002 9.26828 22.0291 8.01195 21.4869C6.75545 20.9446 5.66245 20.2064 4.73295 19.2724C3.80345 18.3384 3.06561 17.2435 2.51945 15.9877C1.97328 14.7319 1.7002 13.3985 1.7002 11.9877C1.7002 10.5769 1.97328 9.2477 2.51945 8.0002C3.06561 6.7527 3.80345 5.66195 4.73295 4.72794C5.66245 3.79394 6.75545 3.05578 8.01195 2.51345C9.26828 1.97128 10.6019 1.7002 12.0127 1.7002C13.4235 1.7002 14.7527 1.97328 16.0002 2.51945C17.2477 3.06561 18.3364 3.80378 19.2664 4.73394C20.1966 5.66394 20.9348 6.75203 21.4809 7.99819C22.0271 9.2442 22.3002 10.5782 22.3002 12.0002C22.3002 13.4027 22.0291 14.7321 21.4869 15.9884C20.9446 17.2449 20.2064 18.3379 19.2724 19.2674C18.3384 20.1969 17.2484 20.9348 16.0022 21.4809C14.7562 22.0271 13.4222 22.3002 12.0002 22.3002Z" fill="url(#paint0_radial_564_12931)"/>
</g>
<defs>
<radialGradient id="paint0_radial_564_12931" cx="0" cy="0" r="1" gradientUnits="userSpaceOnUse" gradientTransform="translate(12.0002 12.0002) rotate(90) scale(10.3)">
<stop offset="0.42" stop-color="#3E7FFF"/>
<stop offset="1" stop-color="#6F9EFD" stop-opacity="0.7"/>
</radialGradient>
<clipPath id="clip0_564_12931">
<rect width="24" height="24" fill="white"/>
</clipPath>
</defs>
</svg>
